<?xml version="1.0" encoding="UTF-8"?>
<svg width="302px" height="109px" viewBox="0 0 302 109" version="1.1" xmlns="http://www.w3.org/2000/svg" xmlns:xlink="http://www.w3.org/1999/xlink">
    <title>logo+text -&gt; centered</title>
    <defs>
        <linearGradient x1="0%" y1="0%" x2="100%" y2="0%" id="linearGradient-1">
            <stop stop-color="#006838" offset="0%"></stop>
            <stop stop-color="#96CF24" offset="100%"></stop>
        </linearGradient>
    </defs>
    <g id="Page-1" stroke="none" stroke-width="1" fill="none" fill-rule="evenodd">
        <g id="Final" transform="translate(-432.000000, -1.000000)">
            <g id="logo+text--&gt;-centered" transform="translate(432.000000, 1.000000)">
                <g id="text" transform="translate(112.000000, 0.000000)" fill="#03200F" font-family="Helvetica-Light, Helvetica" font-weight="300">
                    <text id="carbon-farming-at-sc" font-size="16.7999992">
                        <tspan x="5.68280406" y="94">carbon farming at scale</tspan>
                    </text>
                    <text id="algOS" font-size="64.9000015">
                        <tspan x="3.04240194" y="63">alg</tspan>
                        <tspan x="93.1885041" y="63" font-family="Helvetica" font-weight="normal">OS</tspan>
                    </text>
                </g>
                <g id="algos-circle-original" fill="url(#linearGradient-1)" fill-rule="nonzero">
                    <path d="M109,56.9222222 C109,41.3340111 102.106356,27.3335667 91.2184667,17.7815333 C81.6664333,6.89364444 67.6659889,0 52.0777778,0 C23.3623333,0 0,23.3623333 0,52.0777778 C0,67.6623556 6.89122222,81.6603778 17.7754778,91.2124111 C27.3275111,102.103933 41.3303778,109 56.9222222,109 C57.0239556,109 57.1232667,108.992733 57.225,108.992733 C57.3267333,108.992733 57.4260444,109 57.5277778,109 C85.9549778,109 109,85.9549778 109,57.5277778 C109,57.4260444 108.992733,57.3267333 108.992733,57.225 C108.992733,57.1232667 109,57.0239556 109,56.9222222 Z M20.3805778,82.8048778 C15.2394111,75.5648556 12.1813556,66.7467556 12.1183778,57.225 C12.2818778,32.3839 32.3826889,12.2818778 57.225,12.1183778 C66.7467556,12.1813556 75.5660667,15.2394111 82.8048778,20.3805778 C91.1046222,28.4284111 96.2833333,39.6735778 96.2833333,52.0777778 C96.2833333,76.4526 76.4526,96.2833333 52.0777778,96.2833333 C39.6735778,96.2833333 28.4284111,91.1046222 20.3805778,82.8048778 Z M1.21111111,52.0777778 C1.21111111,24.0296556 24.0296556,1.21111111 52.0777778,1.21111111 C64.0169111,1.21111111 74.9992667,5.35553333 83.6877778,12.2685556 C75.8603667,7.55975556 66.7031556,4.84444444 56.9222222,4.84444444 C28.2067778,4.84444444 4.84444444,28.2067778 4.84444444,56.9222222 C4.84444444,66.7007333 7.55854444,75.8555222 12.2649222,83.6817222 C5.35432222,74.9956333 1.21111111,64.0144889 1.21111111,52.0777778 Z M56.9222222,101.733333 C44.7142222,101.733333 33.6361889,96.8222778 25.5483889,88.8773889 C33.0257889,94.2898444 42.1926889,97.4944444 52.0777778,97.4944444 C77.1211333,97.4944444 97.4944444,77.1211333 97.4944444,52.0777778 C97.4944444,42.1926889 94.2898444,33.0257889 88.8773889,25.5483889 C96.8222778,33.6361889 101.733333,44.7142222 101.733333,56.9222222 C101.733333,81.6313111 81.6313111,101.733333 56.9222222,101.733333 Z" id="circle-path"></path>
                </g>
            </g>
        </g>
    </g>
</svg>