<?xml version="1.0" encoding="UTF-8"?>
<svg width="302px" height="109px" viewBox="0 0 302 109" version="1.1" xmlns="http://www.w3.org/2000/svg" xmlns:xlink="http://www.w3.org/1999/xlink">
    <!-- Generator: Sketch 43.2 (39069) - http://www.bohemiancoding.com/sketch -->
    <title>logo-with-text</title>
    <desc>Created with Sketch.</desc>
    <defs>
        <linearGradient x1="1.16282058%" y1="3.52777716%" x2="22.093591%" y2="3.52777716%" id="linearGradient-1">
            <stop stop-color="#006838" offset="0%"></stop>
            <stop stop-color="#96CF24" offset="100%"></stop>
        </linearGradient>
        <linearGradient x1="0%" y1="0%" x2="100%" y2="0%" id="linearGradient-2">
            <stop stop-color="#006838" offset="0%"></stop>
            <stop stop-color="#96CF24" offset="100%"></stop>
        </linearGradient>
    </defs>
    <g id="Page-1" stroke="none" stroke-width="1" fill="none" fill-rule="evenodd">
        <g id="Group">
            <g id="logo-with-text">
                <g id="text" transform="translate(112.000000, 9.000000)" font-family="Helvetica-Light, Helvetica" fill="#03200F" font-weight="300">
                    <text id="carbon-farming-at-sc" font-size="16.7999992">
                        <tspan x="5.68280406" y="87">carbon farming at scale</tspan>
                    </text>
                    <text id="algOS" font-size="64.9000015" line-spacing="76">
                        <tspan x="0" y="63">alg</tspan>
                        <tspan x="54.5824224" y="78.8090763" font-family="Helvetica-BoldOblique, Helvetica" font-style="italic" font-weight="bold">OS</tspan>
                    </text>
                </g>
                <g id="circle" fill-rule="nonzero" fill="url(#linearGradient-2)">
                    <path d="M108.064421,56.4336423 C108.064421,40.9792293 101.229947,27.0989547 90.4355121,17.6289093 C80.9654666,6.83447429 67.085192,0 51.6307791,0 C23.1618076,0 0,23.1618076 0,51.6307791 C0,67.0815899 6.83207286,80.959463 17.6229057,90.4295085 C27.0929511,101.227546 40.9756271,108.064421 56.4336423,108.064421 C56.5345024,108.064421 56.6329611,108.057217 56.7338212,108.057217 C56.8346813,108.057217 56.93314,108.064421 57.0340001,108.064421 C85.2172012,108.064421 108.064421,85.2172012 108.064421,57.0340001 C108.064421,56.93314 108.057217,56.8346813 108.057217,56.7338212 C108.057217,56.6329611 108.064421,56.5345024 108.064421,56.4336423 Z M20.2056454,82.0941395 C15.1086068,74.9162604 12.0767994,66.1738488 12.0143622,56.7338212 C12.1764589,32.1059396 32.1047389,12.1764589 56.7338212,12.0143622 C66.1738488,12.0767994 74.9174612,15.1086068 82.0941395,20.2056454 C90.3226448,28.1844018 95.4569055,39.3330479 95.4569055,51.6307791 C95.4569055,75.7963851 75.7963851,95.4569055 51.6307791,95.4569055 C39.3330479,95.4569055 28.1844018,90.3226448 20.2056454,82.0941395 Z M1.20071579,51.6307791 C1.20071579,23.823402 23.823402,1.20071579 51.6307791,1.20071579 C63.4674354,1.20071579 74.3555262,5.30956523 82.9694613,12.163251 C75.2092351,7.49486798 66.130623,4.80286317 56.4336423,4.80286317 C27.9646708,4.80286317 4.80286317,27.9646708 4.80286317,56.4336423 C4.80286317,66.1282216 7.49366726,75.2044322 12.1596488,82.9634577 C5.30836452,74.351924 1.20071579,63.4650339 1.20071579,51.6307791 Z M56.4336423,100.860127 C44.3304271,100.860127 33.3474797,95.991224 25.3290996,88.1145284 C32.7423189,93.4805273 41.8305368,96.6576213 51.6307791,96.6576213 C76.4591802,96.6576213 96.6576213,76.4591802 96.6576213,51.6307791 C96.6576213,41.8305368 93.4805273,32.7423189 88.1145284,25.3290996 C95.991224,33.3474797 100.860127,44.3304271 100.860127,56.4336423 C100.860127,80.9306459 80.9306459,100.860127 56.4336423,100.860127 Z" id="path3491-0"></path>
                </g>
            </g>
        </g>
    </g>
</svg>