<?xml version="1.0" standalone="no"?>
<!DOCTYPE svg PUBLIC "-//W3C//DTD SVG 20010904//EN"
 "http://www.w3.org/TR/2001/REC-SVG-20010904/DTD/svg10.dtd">
<svg version="1.0" xmlns="http://www.w3.org/2000/svg"
 width="700.000000pt" height="700.000000pt" viewBox="0 0 700.000000 700.000000"
 preserveAspectRatio="xMidYMid meet">
<metadata>
Created by potrace 1.14, written by Peter Selinger 2001-2017
</metadata>
<g transform="translate(0.000000,700.000000) scale(0.100000,-0.100000)"
fill="#000000" stroke="none">
<path d="M3208 6955 c-2 -1 -46 -6 -98 -9 -52 -4 -104 -9 -115 -11 -11 -2 -42
-6 -70 -9 -471 -51 -1040 -277 -1475 -586 -218 -155 -487 -409 -653 -615 -415
-518 -665 -1129 -724 -1775 -10 -108 -10 -535 0 -620 4 -36 9 -85 12 -110 44
-404 215 -895 443 -1275 75 -125 215 -328 252 -365 3 -3 25 -30 50 -60 65 -80
122 -141 244 -259 59 -58 131 -130 160 -160 230 -242 386 -375 616 -528 140
-92 220 -138 380 -218 313 -156 699 -272 1030 -310 30 -3 62 -8 70 -10 51 -13
462 -21 610 -11 72 5 178 16 210 21 14 2 45 7 70 10 304 41 692 168 997 325
389 201 694 443 1009 801 41 47 170 218 222 296 218 323 403 761 477 1128 26
129 42 224 50 305 4 36 9 79 12 95 8 55 10 499 2 580 -10 102 -19 183 -24 215
-33 204 -31 195 -61 315 -126 505 -362 969 -687 1352 -85 101 -109 125 -340
350 -4 4 -61 62 -125 128 -237 243 -457 415 -733 573 -246 141 -575 278 -789
327 -8 2 -51 12 -95 23 -44 11 -123 28 -175 36 -52 9 -104 18 -115 20 -11 2
-54 7 -95 11 -41 4 -84 9 -95 12 -21 4 -442 12 -447 8z m467 -88 c17 -3 57 -8
90 -11 484 -52 1001 -248 1440 -547 137 -93 181 -131 95 -82 -90 51 -309 154
-410 193 -47 17 -94 36 -105 41 -58 24 -312 95 -425 118 -90 18 -103 21 -150
27 -25 3 -53 8 -62 10 -88 25 -639 39 -783 19 -22 -3 -89 -12 -150 -21 -592
-83 -1134 -319 -1615 -703 -129 -103 -397 -372 -505 -506 -195 -244 -405 -607
-500 -865 -9 -25 -21 -54 -25 -65 -53 -130 -127 -405 -155 -575 -3 -19 -7 -46
-10 -60 -8 -45 -23 -176 -30 -265 -7 -78 -7 -419 -1 -470 2 -22 7 -71 11 -110
3 -38 8 -81 10 -95 61 -424 184 -799 377 -1154 45 -82 23 -68 -41 27 -64 95
-149 227 -165 257 -7 14 -36 68 -64 121 -166 309 -303 742 -337 1069 -4 30 -8
60 -10 66 -7 23 -19 252 -19 364 1 111 10 283 19 345 2 17 6 50 10 75 56 459
241 953 508 1355 128 193 239 328 416 506 133 132 207 197 341 298 52 39 100
74 105 79 47 36 285 176 405 238 207 106 567 229 780 268 14 2 36 7 50 10 14
3 39 7 55 10 17 2 46 7 65 10 48 8 110 15 205 22 44 4 82 8 84 10 5 5 461 -4
496 -9z m235 -691 c181 -17 376 -49 466 -77 17 -5 40 -11 50 -13 156 -30 531
-190 719 -306 188 -116 237 -160 399 -355 271 -327 464 -711 565 -1125 30
-125 34 -145 46 -230 7 -46 9 -60 22 -185 14 -131 7 -499 -11 -603 -2 -9 -7
-39 -10 -65 -11 -76 -20 -119 -47 -237 -75 -322 -236 -676 -435 -957 -172
-244 -383 -460 -625 -640 -401 -299 -850 -476 -1374 -541 -80 -9 -523 -9 -605
1 -268 32 -558 107 -765 196 -290 125 -536 277 -755 467 -144 125 -191 173
-241 249 -253 381 -405 799 -465 1275 -9 76 -12 451 -4 515 5 33 11 83 14 110
16 133 23 173 47 280 47 204 126 429 219 620 76 155 104 204 205 355 448 671
1191 1137 1984 1246 25 3 57 8 71 10 14 2 68 6 120 10 52 4 96 7 97 8 5 5 243
-2 313 -8z m2001 -1066 c311 -386 513 -849 593 -1355 34 -213 39 -582 10 -775
-50 -342 -130 -609 -264 -885 -182 -374 -419 -677 -745 -955 -99 -84 -352
-260 -374 -260 -6 0 -11 -3 -11 -7 0 -5 -10 -13 -23 -19 -12 -6 -67 -34 -122
-61 -220 -112 -375 -170 -605 -227 -131 -33 -162 -39 -245 -51 -22 -4 -50 -8
-62 -10 -182 -30 -574 -27 -793 5 -112 17 -132 21 -235 45 -475 112 -945 361
-1275 674 -61 58 -55 57 35 -5 183 -126 442 -251 694 -333 112 -37 335 -91
441 -107 25 -3 52 -8 60 -9 144 -26 615 -27 755 -1 11 2 47 7 80 12 33 4 62 8
65 9 22 6 71 16 97 20 66 11 341 94 438 133 293 117 593 295 805 478 123 106
227 208 314 308 28 33 58 67 66 75 76 81 239 330 330 505 139 265 209 472 285
836 2 9 6 43 10 75 4 33 9 69 11 79 22 120 22 555 0 672 -2 10 -7 46 -10 79
-7 62 -60 310 -75 355 -5 14 -14 45 -21 70 -7 25 -16 54 -20 65 -5 11 -19 49
-31 85 -56 166 -173 399 -295 589 l-55 86 48 -50 c26 -28 82 -93 124 -145z"/>
</g>
</svg>
