<?xml version="1.0" encoding="UTF-8" standalone="no"?>
<!-- Created with Inkscape (http://www.inkscape.org/) -->

<svg
   width="164.15332mm"
   height="52.533096mm"
   viewBox="0 0 164.15332 52.533096"
   version="1.1"
   id="svg5"
   xml:space="preserve"
   inkscape:version="1.2.2 (03908c27, 2023-01-22)"
   sodipodi:docname="drawing.svg"
   xmlns:inkscape="http://www.inkscape.org/namespaces/inkscape"
   xmlns:sodipodi="http://sodipodi.sourceforge.net/DTD/sodipodi-0.dtd"
   xmlns:xlink="http://www.w3.org/1999/xlink"
   xmlns="http://www.w3.org/2000/svg"
   xmlns:svg="http://www.w3.org/2000/svg"><sodipodi:namedview
     id="namedview7"
     pagecolor="#505050"
     bordercolor="#ffffff"
     borderopacity="1"
     inkscape:showpageshadow="0"
     inkscape:pageopacity="0"
     inkscape:pagecheckerboard="1"
     inkscape:deskcolor="#505050"
     inkscape:document-units="mm"
     showgrid="false"
     inkscape:zoom="1.1230206"
     inkscape:cx="285.39102"
     inkscape:cy="813.4312"
     inkscape:window-width="3360"
     inkscape:window-height="1837"
     inkscape:window-x="0"
     inkscape:window-y="25"
     inkscape:window-maximized="0"
     inkscape:current-layer="g200" /><defs
     id="defs2"><linearGradient
       id="SvgjsLinearGradient3018"><stop
         id="SvgjsStop3019"
         stop-color="#006838"
         offset="0" /><stop
         id="SvgjsStop3020"
         stop-color="#96cf24"
         offset="1" /></linearGradient><linearGradient
       inkscape:collect="always"
       xlink:href="#SvgjsLinearGradient3018"
       id="linearGradient3895"
       x1="5"
       y1="5"
       x2="95"
       y2="5"
       gradientUnits="userSpaceOnUse" /><linearGradient
       inkscape:collect="always"
       xlink:href="#SvgjsLinearGradient3018"
       id="linearGradient3958"
       gradientUnits="userSpaceOnUse"
       x1="5"
       y1="5"
       x2="95"
       y2="5" /></defs><g
     inkscape:label="Layer 1"
     inkscape:groupmode="layer"
     id="layer1"
     transform="translate(-17.385226,-226.58088)"><g
       id="g200"
       transform="matrix(0.37050278,0,0,0.37050278,20.528762,172.62465)"><text
         xml:space="preserve"
         style="font-style:normal;font-variant:normal;font-weight:bold;font-stretch:normal;font-size:138.19px;font-family:sans-serif;-inkscape-font-specification:'sans-serif, Bold';font-variant-ligatures:normal;font-variant-caps:normal;font-variant-numeric:normal;font-variant-east-asian:normal;fill:#1d1d1d;fill-opacity:1;stroke-width:11.5159"
         x="-14.287416"
         y="258.87628"
         id="text348-9"><tspan
           sodipodi:role="line"
           id="tspan346-7"
           style="font-style:normal;font-variant:normal;font-weight:bold;font-stretch:normal;font-size:138.19px;font-family:sans-serif;-inkscape-font-specification:'sans-serif, Bold';font-variant-ligatures:normal;font-variant-caps:normal;font-variant-numeric:normal;font-variant-east-asian:normal;fill:#1d1d1d;fill-opacity:1;stroke-width:11.5159"
           x="-14.287416"
           y="258.87628">alg</tspan></text><g
         id="g3505"
         transform="matrix(0.99467063,0,0,0.99467063,216.97868,151.72026)"><g
           id="SvgjsG3054"
           featurekey="symbolFeature-0"
           transform="matrix(1.2059984,0,0,1.2059984,0.88067331,-9.3615801)"
           fill="url(#SvgjsLinearGradient3058)"
           style="fill:url(#linearGradient3895)"><path
             fill="url(#SvgjsLinearGradient3058)"
             d="M 95,52 C 95,39.129 89.308,27.569 80.318,19.682 72.431,10.692 60.871,5 48,5 24.29,5 5,24.29 5,48 5,60.868 10.69,72.426 19.677,80.313 27.564,89.306 39.126,95 52,95 c 0.084,0 0.166,-0.006 0.25,-0.006 0.084,0 0.166,0.006 0.25,0.006 C 75.972,95 95,75.972 95,52.5 95,52.416 94.994,52.334 94.994,52.25 94.994,52.166 95,52.084 95,52 Z M 21.828,73.371 C 17.583,67.393 15.058,60.112 15.006,52.25 15.141,31.739 31.738,15.141 52.25,15.006 60.112,15.058 67.394,17.583 73.371,21.828 80.224,28.473 84.5,37.758 84.5,48 84.5,68.126 68.126,84.5 48,84.5 37.758,84.5 28.473,80.224 21.828,73.371 Z M 6,48 C 6,24.841 24.841,6 48,6 57.858,6 66.926,9.422 74.1,15.13 67.637,11.242 60.076,9 52,9 28.29,9 9,28.29 9,52 9,60.074 11.241,67.633 15.127,74.095 9.421,66.923 6,57.856 6,48 Z M 52,89 C 41.92,89 32.773,84.945 26.095,78.385 32.269,82.854 39.838,85.5 48,85.5 68.678,85.5 85.5,68.678 85.5,48 85.5,39.838 82.854,32.269 78.385,26.095 84.945,32.773 89,41.92 89,52 89,72.402 72.402,89 52,89 Z"
             id="path3491"
             style="fill:url(#linearGradient3958)" /></g><g
           id="SvgjsG3055"
           featurekey="nameFeature-0"
           transform="matrix(2.2118237,0,0,2.2118237,-4.4663261,98.727087)"
           fill="#ffffff" /></g><text
         xml:space="preserve"
         style="font-style:normal;font-variant:normal;font-weight:bold;font-stretch:normal;font-size:149.428px;font-family:sans-serif;-inkscape-font-specification:'sans-serif, Bold';font-variant-ligatures:normal;font-variant-caps:normal;font-variant-numeric:normal;font-variant-east-asian:normal;fill:#1d1d1d;fill-opacity:1;stroke-width:1.66233"
         x="333.73636"
         y="256.24149"
         id="text4095"><tspan
           sodipodi:role="line"
           id="tspan4093"
           style="stroke-width:1.66233"
           x="333.73636"
           y="256.24149">S</tspan></text></g></g></svg>
