<?xml version="1.0" encoding="UTF-8" standalone="no"?>
<!-- Created with Inkscape (http://www.inkscape.org/) -->

<svg
   width="120.24493mm"
   height="40.000015mm"
   viewBox="0 0 120.24493 40.000015"
   version="1.1"
   id="svg5"
   xml:space="preserve"
   inkscape:version="1.2.2 (03908c27, 2023-01-22)"
   sodipodi:docname="drawing.svg"
   xmlns:inkscape="http://www.inkscape.org/namespaces/inkscape"
   xmlns:sodipodi="http://sodipodi.sourceforge.net/DTD/sodipodi-0.dtd"
   xmlns:xlink="http://www.w3.org/1999/xlink"
   xmlns="http://www.w3.org/2000/svg"
   xmlns:svg="http://www.w3.org/2000/svg"><sodipodi:namedview
     id="namedview7"
     pagecolor="#505050"
     bordercolor="#ffffff"
     borderopacity="1"
     inkscape:showpageshadow="0"
     inkscape:pageopacity="0"
     inkscape:pagecheckerboard="1"
     inkscape:deskcolor="#505050"
     inkscape:document-units="mm"
     showgrid="false"
     inkscape:zoom="1.1230206"
     inkscape:cx="285.39102"
     inkscape:cy="813.4312"
     inkscape:window-width="3360"
     inkscape:window-height="1837"
     inkscape:window-x="0"
     inkscape:window-y="25"
     inkscape:window-maximized="0"
     inkscape:current-layer="g200" /><defs
     id="defs2"><linearGradient
       id="SvgjsLinearGradient3018"><stop
         id="SvgjsStop3019"
         stop-color="#006838"
         offset="0" /><stop
         id="SvgjsStop3020"
         stop-color="#96cf24"
         offset="1" /></linearGradient><linearGradient
       inkscape:collect="always"
       xlink:href="#SvgjsLinearGradient3018"
       id="linearGradient342"
       gradientTransform="scale(1.0038388,0.99617589)"
       x1="11.15717"
       y1="11.042227"
       x2="89.456596"
       y2="11.042227"
       gradientUnits="userSpaceOnUse" /><linearGradient
       inkscape:collect="always"
       xlink:href="#SvgjsLinearGradient3018"
       id="linearGradient344"
       gradientTransform="scale(1.0038388,0.99617589)"
       x1="11.15717"
       y1="11.042227"
       x2="89.456596"
       y2="11.042227"
       gradientUnits="userSpaceOnUse" /></defs><g
     inkscape:label="Layer 1"
     inkscape:groupmode="layer"
     id="layer1"
     transform="translate(-43.731603,-162.73318)"><g
       id="g200"
       transform="matrix(0.37050278,0,0,0.37050278,20.528762,172.62465)"><g
         id="SvgjsG3014"
         featurekey="symbolFeature-0"
         transform="matrix(1.3735547,0,0,1.3841206,47.241466,-41.922715)"
         fill="url(#SvgjsLinearGradient3018)"
         style="fill:url(#linearGradient344)"><path
           d="m 29.5,25.5 c 2.5,0 4.6,-2.1 4.6,-4.6 0,-2.5 -2.1,-4.6 -4.6,-4.6 -2.5,0 -4.6,2.1 -4.6,4.6 0,2.5 2.1,4.6 4.6,4.6 z M 27,58 c 0,0.7 0.6,1.3 1.3,1.3 0.7,0 1.3,-0.6 1.3,-1.3 0,-0.7 -0.6,-1.3 -1.3,-1.3 -0.7,0 -1.3,0.6 -1.3,1.3 z m 9.2,-26.7 c 1.1,0 1.9,-0.9 1.9,-1.9 0,-1.1 -0.9,-1.9 -1.9,-1.9 -1.1,0 -1.9,0.9 -1.9,1.9 0,1 0.8,1.9 1.9,1.9 z M 21.1,48.6 c 2.5,0 4.6,-2.1 4.6,-4.6 0,-2.5 -2.1,-4.6 -4.6,-4.6 -2.5,0 -4.6,2.1 -4.6,4.6 0.1,2.5 2.1,4.6 4.6,4.6 z M 14.5,37.8 c 1.1,0 1.9,-0.9 1.9,-1.9 0,-1.1 -0.9,-1.9 -1.9,-1.9 -1.1,0 -1.9,0.9 -1.9,1.9 0,1.1 0.8,1.9 1.9,1.9 z M 13.8,42 c 0,-0.7 -0.6,-1.3 -1.3,-1.3 -0.7,0 -1.3,0.6 -1.3,1.3 0,0.7 0.6,1.3 1.3,1.3 0.7,0 1.3,-0.6 1.3,-1.3 z m 6.1,-10.8 c 1.8,0 3.2,-1.4 3.2,-3.2 0,-1.8 -1.4,-3.2 -3.2,-3.2 -1.8,0 -3.2,1.4 -3.2,3.2 0,1.8 1.4,3.2 3.2,3.2 z M 58.8,13.6 c 0.7,0 1.3,-0.6 1.3,-1.3 0,-0.7 -0.6,-1.3 -1.3,-1.3 -0.7,0 -1.3,0.6 -1.3,1.3 0,0.7 0.6,1.3 1.3,1.3 z m -35,43.9 c 0,-3.1 -2.5,-5.6 -5.6,-5.6 -3.1,0 -5.6,2.5 -5.6,5.6 0,3.1 2.5,5.6 5.6,5.6 3.1,0 5.6,-2.5 5.6,-5.6 z M 79.9,33.9 c 2.5,0 4.6,-2.1 4.6,-4.6 0,-2.5 -2.1,-4.6 -4.6,-4.6 -2.5,0 -4.6,2.1 -4.6,4.6 0,2.5 2,4.6 4.6,4.6 z M 69.6,65.5 c 0,1.8 1.4,3.2 3.2,3.2 1.8,0 3.2,-1.4 3.2,-3.2 0,-1.8 -1.4,-3.2 -3.2,-3.2 -1.8,0 -3.2,1.4 -3.2,3.2 z m 3.2,-42.6 c 1.8,0 3.2,-1.4 3.2,-3.2 0,-1.8 -1.4,-3.2 -3.2,-3.2 -1.8,0 -3.2,1.4 -3.2,3.2 0,1.8 1.4,3.2 3.2,3.2 z m -7.1,8.3 c 1.8,0 3.2,-1.4 3.2,-3.2 0,-1.8 -1.4,-3.2 -3.2,-3.2 -1.8,0 -3.2,1.4 -3.2,3.2 0,1.8 1.4,3.2 3.2,3.2 z m 11.5,11.3 c 0,3.1 2.5,5.6 5.6,5.6 3.1,0 5.6,-2.5 5.6,-5.6 0,-3.1 -2.5,-5.6 -5.6,-5.6 -3.1,0 -5.6,2.5 -5.6,5.6 z M 74,42 c 0,-0.7 -0.6,-1.3 -1.3,-1.3 -0.7,0 -1.3,0.6 -1.3,1.3 0,0.7 0.6,1.3 1.3,1.3 0.7,0 1.3,-0.6 1.3,-1.3 z M 64.8,16.1 c 1.1,0 1.9,-0.9 1.9,-1.9 0,-1 -0.9,-1.9 -1.9,-1.9 -1.1,0 -1.9,0.9 -1.9,1.9 0,1 0.9,1.9 1.9,1.9 z m 6,21.7 c 1.1,0 1.9,-0.9 1.9,-1.9 0,-1.1 -0.9,-1.9 -1.9,-1.9 -1,0 -1.9,0.9 -1.9,1.9 0,1.1 0.9,1.9 1.9,1.9 z M 31.4,34.5 c 0,-1.8 -1.4,-3.2 -3.2,-3.2 -1.8,0 -3.2,1.4 -3.2,3.2 0,1.8 1.4,3.2 3.2,3.2 1.8,0 3.2,-1.4 3.2,-3.2 z m 33.4,34.2 c -1.1,0 -1.9,0.9 -1.9,1.9 0,1.1 0.9,1.9 1.9,1.9 1.1,0 1.9,-0.9 1.9,-1.9 0,-1 -0.8,-1.9 -1.9,-1.9 z m -6.5,7.7 c -3.1,0 -5.6,2.5 -5.6,5.6 0,3.1 2.5,5.6 5.6,5.6 3.1,0 5.6,-2.5 5.6,-5.6 0,-3.1 -2.5,-5.6 -5.6,-5.6 z m 13.2,-1.9 c -2.5,0 -4.6,2.1 -4.6,4.6 0,2.5 2.1,4.6 4.6,4.6 2.5,0 4.6,-2.1 4.6,-4.6 0,-2.5 -2.1,-4.6 -4.6,-4.6 z m -14,-2 c 0,0.7 0.6,1.3 1.3,1.3 0.7,0 1.3,-0.6 1.3,-1.3 0,-0.7 -0.6,-1.3 -1.3,-1.3 -0.7,0.1 -1.3,0.6 -1.3,1.3 z m 31,-15.8 c -0.7,0 -1.3,0.6 -1.3,1.3 0,0.7 0.6,1.3 1.3,1.3 0.7,0 1.3,-0.6 1.3,-1.3 0,-0.7 -0.7,-1.3 -1.3,-1.3 z m -2,5.5 c -1.1,0 -1.9,0.9 -1.9,1.9 0,1.1 0.9,1.9 1.9,1.9 1.1,0 1.9,-0.9 1.9,-1.9 0,-1.1 -0.8,-1.9 -1.9,-1.9 z M 56.2,25.5 c 2.5,0 4.6,-2.1 4.6,-4.6 0,-2.5 -2.1,-4.6 -4.6,-4.6 -2.5,0 -4.6,2.1 -4.6,4.6 0,2.5 2.1,4.6 4.6,4.6 z m 23.7,25.9 c -2.5,0 -4.6,2.1 -4.6,4.6 0,2.5 2.1,4.6 4.6,4.6 2.5,0 4.6,-2.1 4.6,-4.6 -0.1,-2.5 -2.1,-4.6 -4.6,-4.6 z M 21.1,66.1 c -2.5,0 -4.6,2.1 -4.6,4.6 0,2.5 2.1,4.6 4.6,4.6 2.5,0 4.6,-2.1 4.6,-4.6 0,-2.5 -2,-4.6 -4.6,-4.6 z m 60,2.7 c -1.8,0 -3.2,1.4 -3.2,3.2 0,1.8 1.4,3.2 3.2,3.2 1.8,0 3.2,-1.4 3.2,-3.2 0,-1.8 -1.4,-3.2 -3.2,-3.2 z M 30.2,62.2 c -1.1,0 -1.9,0.9 -1.9,1.9 0,1.1 0.9,1.9 1.9,1.9 1,0 1.9,-0.9 1.9,-1.9 0,-1.1 -0.9,-1.9 -1.9,-1.9 z m 5.1,6.6 c -1.8,0 -3.2,1.4 -3.2,3.2 0,1.8 1.4,3.2 3.2,3.2 1.8,0 3.2,-1.4 3.2,-3.2 0,-1.8 -1.4,-3.2 -3.2,-3.2 z m 0.9,15.1 c -1.1,0 -1.9,0.9 -1.9,1.9 0,1 0.9,1.9 1.9,1.9 1.1,0 1.9,-0.9 1.9,-1.9 0,-1 -0.9,-1.9 -1.9,-1.9 z m -8,-6.8 c -1.8,0 -3.2,1.4 -3.2,3.2 0,1.8 1.4,3.2 3.2,3.2 1.8,0 3.2,-1.4 3.2,-3.2 0,-1.8 -1.4,-3.2 -3.2,-3.2 z M 41,27.5 c 0,0.7 0.6,1.3 1.3,1.3 0.7,0 1.3,-0.6 1.3,-1.3 0,-0.7 -0.6,-1.3 -1.3,-1.3 -0.8,0 -1.3,0.6 -1.3,1.3 z m 7.3,-9.6 c 0,-3.1 -2.5,-5.6 -5.6,-5.6 -3.1,0 -5.6,2.5 -5.6,5.6 0,3.1 2.5,5.6 5.6,5.6 3.1,0.1 5.6,-2.4 5.6,-5.6 z m -6.1,68.5 c -0.7,0 -1.3,0.6 -1.3,1.3 0,0.7 0.6,1.3 1.3,1.3 0.7,0 1.3,-0.6 1.3,-1.3 0,-0.7 -0.6,-1.3 -1.3,-1.3 z m 2.6,-11.9 c -2.5,0 -4.6,2.1 -4.6,4.6 0,2.5 2.1,4.6 4.6,4.6 2.5,0 4.6,-2.1 4.6,-4.6 0,-2.5 -2.1,-4.6 -4.6,-4.6 z"
           id="path183"
           style="fill:url(#linearGradient342)" /></g><text
         xml:space="preserve"
         style="font-style:normal;font-variant:normal;font-weight:bold;font-stretch:normal;font-size:64.1928px;font-family:sans-serif;-inkscape-font-specification:'sans-serif, Bold';font-variant-ligatures:normal;font-variant-caps:normal;font-variant-numeric:normal;font-variant-east-asian:normal;fill:#1d1d1d;fill-opacity:1;stroke-width:5.34939"
         x="179.57835"
         y="45.039772"
         id="text348"><tspan
           sodipodi:role="line"
           id="tspan346"
           style="font-style:normal;font-variant:normal;font-weight:bold;font-stretch:normal;font-size:64.1928px;font-family:sans-serif;-inkscape-font-specification:'sans-serif, Bold';font-variant-ligatures:normal;font-variant-caps:normal;font-variant-numeric:normal;font-variant-east-asian:normal;fill:#1d1d1d;fill-opacity:1;stroke-width:5.34939"
           x="179.57835"
           y="45.039772">algOS</tspan></text></g></g></svg>
